<svg width="179" height="42" viewBox="0 0 179 42" fill="none" xmlns="http://www.w3.org/2000/svg">
<g clip-path="url(#clip0_24_2633)">
<path fill-rule="evenodd" clip-rule="evenodd" d="M13.7146 1.01611C11.4582 1.01611 9.2943 1.91245 7.69881 3.50794L0 11.2067V14.7307C0 17.2204 1.06944 19.4603 2.77401 21.0161C1.06944 22.5719 0 24.8118 0 27.3015V30.8255L7.69881 38.5243C9.2943 40.1198 11.4582 41.0161 13.7146 41.0161C16.2043 41.0161 18.4442 39.9467 20 38.2421C21.5558 39.9467 23.7957 41.0161 26.2854 41.0161C28.5418 41.0161 30.7057 40.1198 32.3012 38.5243L40 30.8255V27.3015C40 24.8118 38.9306 22.5719 37.226 21.0161C38.9306 19.4603 40 17.2204 40 14.7307V11.2067L32.3012 3.50794C30.7057 1.91245 28.5418 1.01611 26.2854 1.01611C23.7957 1.01611 21.5558 2.08555 20 3.79012C18.4442 2.08555 16.2043 1.01611 13.7146 1.01611ZM25.7588 21.0161C25.6629 20.9286 25.5688 20.8387 25.4766 20.7465L20 15.2699L14.5234 20.7465C14.4312 20.8387 14.3371 20.9286 14.2412 21.0161C14.3371 21.1036 14.4312 21.1935 14.5234 21.2857L20 26.7623L25.4766 21.2857C25.5688 21.1935 25.6629 21.1036 25.7588 21.0161ZM22.2222 30.8255V32.5085C22.2222 34.7525 24.0414 36.5717 26.2854 36.5717C27.363 36.5717 28.3965 36.1436 29.1585 35.3816L35.5556 28.9845V27.3015C35.5556 25.0575 33.7364 23.2383 31.4924 23.2383C30.4148 23.2383 29.3813 23.6664 28.6193 24.4284L22.2222 30.8255ZM17.7778 30.8255L11.3807 24.4284C10.6187 23.6664 9.58524 23.2383 8.50762 23.2383C6.26359 23.2383 4.44444 25.0575 4.44444 27.3015V28.9845L10.8415 35.3816C11.6035 36.1436 12.637 36.5717 13.7146 36.5717C15.9586 36.5717 17.7778 34.7525 17.7778 32.5085V30.8255ZM17.7778 9.52373V11.2067L11.3807 17.6038C10.6187 18.3658 9.58524 18.7939 8.50762 18.7939C6.26359 18.7939 4.44444 16.9747 4.44444 14.7307V13.0477L10.8415 6.65063C11.6035 5.88864 12.637 5.46056 13.7146 5.46056C15.9586 5.46056 17.7778 7.2797 17.7778 9.52373ZM28.6193 17.6038L22.2222 11.2067V9.52373C22.2222 7.2797 24.0414 5.46056 26.2854 5.46056C27.363 5.46056 28.3965 5.88864 29.1585 6.65063L35.5556 13.0477V14.7307C35.5556 16.9747 33.7364 18.7939 31.4924 18.7939C30.4148 18.7939 29.3813 18.3658 28.6193 17.6038Z" fill="#F25C54"/>
</g>
<path d="M54.3176 29.5V12.7H65.8016V15.796H57.8696V19.396H64.5896V22.264H57.8696V26.368H65.8976V29.5H54.3176ZM67.1359 29.524L71.5039 23.488L67.3639 17.38H71.7919L73.9399 21.064L76.0279 17.38H80.3479L76.3279 23.416L80.6599 29.5H76.1719L73.8199 25.804L71.4319 29.464L67.1359 29.524ZM87.4288 29.86C86.1328 29.86 85.1088 29.496 84.3568 28.768C83.6128 28.032 83.2408 26.924 83.2408 25.444V13.888H86.7448V17.38H89.7568V20.188H86.7448V24.808C86.7448 25.52 86.8928 26.02 87.1888 26.308C87.4848 26.596 87.8808 26.74 88.3768 26.74C88.6328 26.74 88.8808 26.712 89.1208 26.656C89.3688 26.592 89.5968 26.504 89.8048 26.392L90.2968 29.152C89.9368 29.352 89.5048 29.52 89.0008 29.656C88.5048 29.792 87.9808 29.86 87.4288 29.86ZM80.7808 20.188V17.38H83.5888V20.188H80.7808ZM97.9071 29.86C96.5871 29.86 95.4271 29.592 94.4271 29.056C93.4271 28.52 92.6471 27.772 92.0871 26.812C91.5271 25.852 91.2471 24.728 91.2471 23.44C91.2471 22.504 91.4071 21.644 91.7271 20.86C92.0551 20.076 92.5111 19.4 93.0951 18.832C93.6871 18.256 94.3791 17.812 95.1711 17.5C95.9711 17.18 96.8471 17.02 97.7991 17.02C98.8471 17.02 99.7751 17.204 100.583 17.572C101.399 17.94 102.075 18.456 102.611 19.12C103.147 19.776 103.519 20.548 103.727 21.436C103.943 22.324 103.963 23.288 103.787 24.328H94.4991C94.4991 24.888 94.6431 25.376 94.9311 25.792C95.2271 26.208 95.6391 26.536 96.1671 26.776C96.7031 27.008 97.3271 27.124 98.0391 27.124C98.7431 27.124 99.4151 27.028 100.055 26.836C100.695 26.644 101.299 26.352 101.867 25.96L103.031 28.36C102.647 28.656 102.167 28.92 101.591 29.152C101.015 29.376 100.403 29.548 99.7551 29.668C99.1151 29.796 98.4991 29.86 97.9071 29.86ZM94.7031 21.916H100.427C100.403 21.204 100.151 20.64 99.6711 20.224C99.1991 19.808 98.5471 19.6 97.7151 19.6C96.8831 19.6 96.1911 19.808 95.6391 20.224C95.0951 20.64 94.7831 21.204 94.7031 21.916ZM105.829 29.5V17.38H109.333V18.748C109.797 18.14 110.345 17.7 110.977 17.428C111.617 17.156 112.285 17.02 112.981 17.02C114.109 17.02 115.037 17.244 115.765 17.692C116.501 18.132 117.045 18.704 117.397 19.408C117.757 20.112 117.937 20.852 117.937 21.628V29.5H114.433V22.72C114.433 21.952 114.217 21.34 113.785 20.884C113.361 20.428 112.745 20.2 111.937 20.2C111.425 20.2 110.973 20.316 110.581 20.548C110.189 20.772 109.881 21.088 109.657 21.496C109.441 21.904 109.333 22.376 109.333 22.912V29.5H105.829ZM125.119 29.848C124.039 29.848 123.043 29.708 122.131 29.428C121.219 29.14 120.439 28.748 119.791 28.252L120.931 25.804C121.563 26.236 122.247 26.576 122.983 26.824C123.719 27.064 124.427 27.184 125.107 27.184C125.779 27.184 126.295 27.084 126.655 26.884C127.023 26.676 127.207 26.38 127.207 25.996C127.207 25.652 127.043 25.4 126.715 25.24C126.395 25.072 125.771 24.892 124.843 24.7C123.243 24.412 122.075 23.96 121.339 23.344C120.603 22.72 120.235 21.864 120.235 20.776C120.235 20.008 120.447 19.332 120.871 18.748C121.303 18.164 121.895 17.712 122.647 17.392C123.399 17.064 124.263 16.9 125.239 16.9C126.199 16.9 127.103 17.032 127.951 17.296C128.807 17.552 129.539 17.912 130.147 18.376L129.043 20.836C128.723 20.58 128.355 20.356 127.939 20.164C127.531 19.972 127.099 19.824 126.643 19.72C126.195 19.608 125.755 19.552 125.323 19.552C124.739 19.552 124.267 19.652 123.907 19.852C123.547 20.044 123.367 20.316 123.367 20.668C123.367 21.02 123.531 21.28 123.859 21.448C124.187 21.616 124.799 21.8 125.695 22C127.367 22.352 128.555 22.82 129.259 23.404C129.971 23.98 130.327 24.792 130.327 25.84C130.327 26.648 130.107 27.352 129.667 27.952C129.235 28.552 128.627 29.02 127.843 29.356C127.067 29.684 126.159 29.848 125.119 29.848ZM132.532 29.5V17.38H136.036V29.5H132.532ZM134.284 15.46C133.7 15.46 133.196 15.28 132.772 14.92C132.348 14.552 132.136 14.064 132.136 13.456C132.136 12.84 132.348 12.352 132.772 11.992C133.196 11.624 133.7 11.44 134.284 11.44C134.868 11.44 135.372 11.624 135.796 11.992C136.22 12.352 136.432 12.84 136.432 13.456C136.432 14.064 136.22 14.552 135.796 14.92C135.372 15.28 134.868 15.46 134.284 15.46ZM144.646 29.86C143.342 29.86 142.186 29.568 141.178 28.984C140.17 28.4 139.378 27.624 138.802 26.656C138.234 25.68 137.95 24.608 137.95 23.44C137.95 22.584 138.114 21.772 138.442 21.004C138.77 20.228 139.234 19.544 139.834 18.952C140.434 18.352 141.142 17.88 141.958 17.536C142.774 17.192 143.67 17.02 144.646 17.02C145.95 17.02 147.102 17.312 148.102 17.896C149.11 18.48 149.898 19.26 150.466 20.236C151.042 21.204 151.33 22.272 151.33 23.44C151.33 24.288 151.166 25.1 150.838 25.876C150.51 26.652 150.046 27.34 149.446 27.94C148.854 28.532 148.15 29 147.334 29.344C146.518 29.688 145.622 29.86 144.646 29.86ZM144.646 26.824C145.262 26.824 145.814 26.688 146.302 26.416C146.79 26.136 147.174 25.744 147.454 25.24C147.734 24.728 147.874 24.128 147.874 23.44C147.874 22.744 147.734 22.144 147.454 21.64C147.182 21.136 146.802 20.748 146.314 20.476C145.826 20.196 145.27 20.056 144.646 20.056C144.022 20.056 143.462 20.196 142.966 20.476C142.478 20.748 142.094 21.136 141.814 21.64C141.542 22.144 141.406 22.744 141.406 23.44C141.406 24.136 141.546 24.736 141.826 25.24C142.106 25.744 142.49 26.136 142.978 26.416C143.466 26.688 144.022 26.824 144.646 26.824ZM153.235 29.5V17.38H156.739V18.748C157.203 18.14 157.751 17.7 158.383 17.428C159.023 17.156 159.691 17.02 160.387 17.02C161.515 17.02 162.443 17.244 163.171 17.692C163.907 18.132 164.451 18.704 164.803 19.408C165.163 20.112 165.343 20.852 165.343 21.628V29.5H161.839V22.72C161.839 21.952 161.623 21.34 161.191 20.884C160.767 20.428 160.151 20.2 159.343 20.2C158.831 20.2 158.379 20.316 157.987 20.548C157.595 20.772 157.287 21.088 157.063 21.496C156.847 21.904 156.739 22.376 156.739 22.912V29.5H153.235ZM172.526 29.848C171.446 29.848 170.45 29.708 169.538 29.428C168.626 29.14 167.846 28.748 167.198 28.252L168.338 25.804C168.97 26.236 169.654 26.576 170.39 26.824C171.126 27.064 171.834 27.184 172.514 27.184C173.186 27.184 173.702 27.084 174.062 26.884C174.43 26.676 174.614 26.38 174.614 25.996C174.614 25.652 174.45 25.4 174.122 25.24C173.802 25.072 173.178 24.892 172.25 24.7C170.65 24.412 169.482 23.96 168.746 23.344C168.01 22.72 167.642 21.864 167.642 20.776C167.642 20.008 167.854 19.332 168.278 18.748C168.71 18.164 169.302 17.712 170.054 17.392C170.806 17.064 171.67 16.9 172.646 16.9C173.606 16.9 174.51 17.032 175.358 17.296C176.214 17.552 176.946 17.912 177.554 18.376L176.45 20.836C176.13 20.58 175.762 20.356 175.346 20.164C174.938 19.972 174.506 19.824 174.05 19.72C173.602 19.608 173.162 19.552 172.73 19.552C172.146 19.552 171.674 19.652 171.314 19.852C170.954 20.044 170.774 20.316 170.774 20.668C170.774 21.02 170.938 21.28 171.266 21.448C171.594 21.616 172.206 21.8 173.102 22C174.774 22.352 175.962 22.82 176.666 23.404C177.378 23.98 177.734 24.792 177.734 25.84C177.734 26.648 177.514 27.352 177.074 27.952C176.642 28.552 176.034 29.02 175.25 29.356C174.474 29.684 173.566 29.848 172.526 29.848Z" fill="white"/>
<defs>
<clipPath id="clip0_24_2633">
<rect width="40" height="41" fill="white" transform="translate(0 0.5)"/>
</clipPath>
</defs>
</svg>
